<?xml version="1.0" encoding="UTF-8"?>
<!-- Generator: Adobe Illustrator 22.1.0, SVG Export Plug-In . SVG Version: 6.00 Build 0)  -->
<svg xmlns="http://www.w3.org/2000/svg" xmlns:xlink="http://www.w3.org/1999/xlink" id="Calque_1" x="0px" y="0px" viewBox="0 0 65.3 22.7" style="enable-background:new 0 0 65.3 22.7;" xml:space="preserve">
<style type="text/css">
	.st0{fill:#FFFFFF;}
</style>
<g>
	<path class="st0" d="M6.7,7.9C3.4,7.9,1,10,1,13.3c0,3,1.9,5.4,6.4,5.4c2.4,0,3.4-0.4,3.9-0.5v-2.8c0,0-1.5,0.6-3.8,0.6   c-2,0-2.7-0.5-2.8-1.7h7.2c0,0,0.1-0.8,0.1-1.5C11.9,10.2,10.1,7.9,6.7,7.9z M4.7,12.3c0.1-1,0.6-1.8,2.1-1.8c1.4,0,1.9,1,1.9,1.8   H4.7z"></path>
	<polygon class="st0" points="9.9,4.2 6.7,4.2 5.4,7.1 7.9,7.1  "></polygon>
	<path class="st0" d="M21.6,9.6c-0.5-0.6-1.6-1.7-3.2-1.7c-3.2,0-5.2,2.2-5.1,5.5c0.1,3.1,2.1,5.3,5.1,5.3c0.7,0,1.6-0.1,2.1-0.3   l1.2-2.7v2.7h3.5V4h-3.5L21.6,9.6z M19.3,15.8c-1.4,0-2.3-1.1-2.3-2.6c0-1.5,1-2.5,2.3-2.5c1.4,0,2.3,1,2.3,2.5   C21.6,14.7,20.7,15.8,19.3,15.8z"></path>
	<path class="st0" d="M34,7.9c-1,0-1.7,0.2-2.1,0.3L30.8,11V4h-3.5l0,7v7.4h3.5v-5.5c0-1.4,1.2-2.1,2.4-2.1c1.2,0,1.7,0.7,1.7,1.9   l0,5.7h3.5v-6.6C38.4,9.3,36.8,7.9,34,7.9z"></path>
	<polygon class="st0" points="48.9,4.2 45.8,4.2 44.5,7.1 47,7.1  "></polygon>
	<path class="st0" d="M45.7,7.9c-3.3,0-5.7,2.1-5.7,5.4c0,3,1.9,5.4,6.4,5.4c2.4,0,3.4-0.4,3.9-0.5v-2.8c0,0-1.5,0.6-3.8,0.6   c-2,0-2.8-0.5-2.8-1.7h7.2c0,0,0.1-0.8,0.1-1.5C50.9,10.2,49.1,7.9,45.7,7.9z M43.7,12.3c0.1-1,0.6-1.8,2.1-1.8   c1.4,0,1.9,1,1.9,1.8H43.7z"></path>
	<path class="st0" d="M60.8,8.2l0,1.3c-0.5-0.6-1.6-1.7-3.3-1.7c-3.2,0-5.2,2.2-5.1,5.5c0.1,3.1,2.1,5.3,5.1,5.3   c0.7,0,1.7-0.1,2.1-0.3l1.2-2.7v2.7h3.5V8.2H60.8z M58.4,15.8c-1.5,0-2.3-1.1-2.3-2.6c0-1.5,1-2.5,2.3-2.5c1.5,0,2.4,1,2.4,2.5   C60.8,14.7,59.8,15.8,58.4,15.8z"></path>
</g>
</svg>
