<svg id="Ebene_1" data-name="Ebene 1" xmlns="http://www.w3.org/2000/svg" viewBox="0 0 689.9 103.8"><defs><style>.cls-1{fill:#141414;}</style></defs><title>SARN_Logo_full_black-2</title><path class="cls-1" d="M128.7,47.8V10.1l21.1,37.7h9.1V2.3h-6.5V40L131.3,2.3h-9.1V47.8ZM88.4,8.2h12c5.8,0,8.8,2.5,8.8,7.5a7.09,7.09,0,0,1-2.7,5.9,10.67,10.67,0,0,1-7,2.2H88.4Zm0,21.4h13.7a6,6,0,0,1,4,1.1,10.09,10.09,0,0,1,2.2,4.1l4.2,13h6.8l-4.9-15.3c-.9-2.5-1.8-4.2-2.8-5.1s-2.8-1.5-5.4-1.8a13.88,13.88,0,0,0,6.7-4,10.37,10.37,0,0,0,2.7-7.4,10.83,10.83,0,0,0-3.9-8.9c-2.6-2.1-6.1-3.2-10.4-3.2H81.9V47.6h6.5Zm-39.8.7,8.6-22,8.6,22ZM41.8,47.8l4.5-11.7H68l4.5,11.7h6.8L61.5,2.3H53.2l-18,45.5ZM36.5,16A13.71,13.71,0,0,0,31.7,5.6c-3-2.6-7.1-3.9-12.1-3.9C14.8,1.7,10.9,3,7.9,5.5a11.59,11.59,0,0,0-4.5,9.2c0,7,3.8,11.2,11.5,12.8L22.2,29c4.8,1,7.1,3.2,7.1,6.8a6,6,0,0,1-2.5,4.9,11.08,11.08,0,0,1-6.9,1.9h-.7c-3.5,0-6.3-.8-8.4-2.5a8.38,8.38,0,0,1-3.2-7H1c.2,4.9,1.9,8.6,5.1,11.3s7.6,4,13.1,4c5.1,0,9.1-1.2,12.1-3.5a11.35,11.35,0,0,0,4.5-9.5c0-7.1-4.1-11.5-12.4-13.1L16,21c-4.2-.9-6.2-3-6.2-6.4a6.44,6.44,0,0,1,2.6-5.1,11.2,11.2,0,0,1,6.8-2h.6a10.72,10.72,0,0,1,7,2.3,8.3,8.3,0,0,1,3.1,6.1h6.6Z" transform="translate(-1 -1)"/><path class="cls-1" d="M690.9,104.1,676.5,84.2l13.7-13.1H682L667.5,85.4V57.9h-6.3v46.2h6.3V93l4.6-4.4,11.2,15.6,7.6-.1Zm-44.6,0V87.4c0-3.3.8-5.9,2.5-7.8a8.83,8.83,0,0,1,7-2.8h2.6V70.7H656a11,11,0,0,0-6.3,2,9.33,9.33,0,0,0-3.8,5.6V71H640v33l6.3.1Zm-9.9-16.5c0-5.1-1.5-9.2-4.5-12.4a15.7,15.7,0,0,0-22.6,0c-3,3.2-4.5,7.3-4.5,12.4s1.5,9.4,4.4,12.5a16.18,16.18,0,0,0,22.8,0c3-3.1,4.4-7.2,4.4-12.5M620.3,99.5a8.34,8.34,0,0,1-6.7-3.2c-1.7-2.1-2.6-5-2.6-8.7s.9-6.6,2.6-8.7a8.2,8.2,0,0,1,6.7-3.2h.7a8.34,8.34,0,0,1,6.7,3.2c1.7,2.1,2.6,5,2.6,8.7s-.9,6.6-2.6,8.7a8.2,8.2,0,0,1-6.7,3.2Zm-46.6,4.6L581,78.4l7.3,25.7h6.9l10.2-33h-6.6l-6.9,26.1-7.6-26.1h-6.6l-7.3,26.1-7.3-26.1h-6.6l10.2,33ZM549,98.7a2.25,2.25,0,0,1-2.7-2.7V76.5h7.9V71.1h-7.9V60.4H540V71.1h-7.3v5.4H540V97.2q0,6.9,6.9,6.9h8.2V98.6l-6.1.1ZM518.8,75.8a6.93,6.93,0,0,1,5.3,2.1,7.65,7.65,0,0,1,2,5.4H509.8c.6-2.6,1.6-4.5,3.2-5.7a8.15,8.15,0,0,1,5.1-1.8Zm7.3,18.6a5.53,5.53,0,0,1-2.4,3.8,8.1,8.1,0,0,1-4.7,1.3,8.79,8.79,0,0,1-6.5-2.8c-1.9-1.8-2.9-4.6-3.1-8.1h23.1V85.3a14.91,14.91,0,0,0-3.9-10.6,13.2,13.2,0,0,0-10.1-4.2A15.12,15.12,0,0,0,507.6,75q-4.5,4.5-4.5,12.6c0,5.5,1.5,9.7,4.6,12.7a15.31,15.31,0,0,0,11.2,4.5,15,15,0,0,0,9-2.7,11.61,11.61,0,0,0,4.6-7.7Zm-57,9.7V65.9l21.5,38.3h9.2V57.9h-6.6V96.2L471.7,57.9h-9.2v46.2Zm-44.5,0V86.3a11.38,11.38,0,0,1,2.6-7.7,7.87,7.87,0,0,1,6-2.9h.7a6.35,6.35,0,0,1,5.1,2.1,8.57,8.57,0,0,1,1.8,5.8v20.5h6.3V83a13.79,13.79,0,0,0-2.9-9.1c-1.9-2.3-4.7-3.4-8.3-3.4a12.94,12.94,0,0,0-7.2,2,9.86,9.86,0,0,0-4,4.9V57.9h-6.3v46.2Zm-23.4.7a14,14,0,0,0,9.4-3.1,11.82,11.82,0,0,0,4.2-8.4h-6.3a7.8,7.8,0,0,1-2.3,4.5,6.41,6.41,0,0,1-4.6,1.7h-.7a7.85,7.85,0,0,1-6.9-3.4,14.34,14.34,0,0,1-2.4-8.4,14.13,14.13,0,0,1,2.4-8.4,7.85,7.85,0,0,1,6.9-3.4h.7a6.88,6.88,0,0,1,4.6,1.7,7.53,7.53,0,0,1,2.3,4.5h6.3a11.45,11.45,0,0,0-4.2-8.4,14,14,0,0,0-9.4-3.1c-4.9,0-8.8,1.6-11.6,4.8s-4.2,7.3-4.2,12.3,1.4,9.1,4.2,12.3,6.7,4.8,11.6,4.8m-28-.7V87.4c0-3.3.8-5.9,2.5-7.8a8.83,8.83,0,0,1,7-2.8h2.6V70.7H383a11,11,0,0,0-6.3,2,9.33,9.33,0,0,0-3.8,5.6V71H367v33l6.2.1ZM343,98.2a4.33,4.33,0,0,1-1.5-3.4,4.28,4.28,0,0,1,1.8-3.6,9.42,9.42,0,0,1,4.8-1.6l8.2-.7v3.4a6.21,6.21,0,0,1-2.9,5,9.48,9.48,0,0,1-6,2.2h-.7a5.41,5.41,0,0,1-3.7-1.3m9.7,4.8a9.68,9.68,0,0,0,3.9-4.2,33.31,33.31,0,0,0,.3,5.3h5.9a62.86,62.86,0,0,1-.3-7.3V83a12.3,12.3,0,0,0-3.5-8.9c-2.4-2.4-5.6-3.6-9.9-3.6a14.7,14.7,0,0,0-9.3,2.8,9.74,9.74,0,0,0-4,7.4h6.3a5,5,0,0,1,2.2-3.7,8.1,8.1,0,0,1,4.7-1.3h.3a6.57,6.57,0,0,1,5.1,1.9,7.57,7.57,0,0,1,1.8,5.3V84l-9.1.7a18.4,18.4,0,0,0-4.2.8,14.3,14.3,0,0,0-3.8,1.7,7.89,7.89,0,0,0-2.9,3.1,9.89,9.89,0,0,0-1.1,4.7,9,9,0,0,0,3.1,7,11.64,11.64,0,0,0,7.8,2.8,12.2,12.2,0,0,0,6.7-1.8M318.9,75.8a6.93,6.93,0,0,1,5.3,2.1,7.65,7.65,0,0,1,2,5.4H309.9c.6-2.6,1.6-4.5,3.2-5.7a8.15,8.15,0,0,1,5.1-1.8Zm7.3,18.6a5.53,5.53,0,0,1-2.4,3.8,8.1,8.1,0,0,1-4.7,1.3,8.79,8.79,0,0,1-6.5-2.8c-1.9-1.8-2.9-4.6-3.1-8.1h23.1V85.3a14.91,14.91,0,0,0-3.9-10.6,13.2,13.2,0,0,0-10.1-4.2A15.12,15.12,0,0,0,307.7,75q-4.5,4.5-4.5,12.6c0,5.5,1.5,9.7,4.6,12.7a15.31,15.31,0,0,0,11.2,4.5,15,15,0,0,0,9-2.7,11.61,11.61,0,0,0,4.6-7.7Zm-29.5,7.7a8.55,8.55,0,0,0,3.6-7.2c0-5.2-3-8.4-9.1-9.6L286,84.2c-3.1-.6-4.6-2-4.6-4.2a3.42,3.42,0,0,1,1.7-3,7.09,7.09,0,0,1,4.3-1.3h.7a6.46,6.46,0,0,1,4.6,1.6,6.17,6.17,0,0,1,2,4H301a11.08,11.08,0,0,0-3.7-7.7c-2.3-2.1-5.5-3.2-9.6-3.2a14.79,14.79,0,0,0-8.8,2.6,9,9,0,0,0-.9,13.6,14,14,0,0,0,7,3.4l4.8.9q4.5.9,4.5,4.2a3.68,3.68,0,0,1-1.7,3.1,7.5,7.5,0,0,1-4.3,1.2h-.7a8,8,0,0,1-5-1.5,5.3,5.3,0,0,1-2.3-4.2H274a10.54,10.54,0,0,0,3.8,7.9c2.4,2,5.6,3,9.9,3a13.49,13.49,0,0,0,9-2.5M258.1,75.8a6.93,6.93,0,0,1,5.3,2.1,7.65,7.65,0,0,1,2,5.4H249.1c.6-2.6,1.6-4.5,3.2-5.7a8.15,8.15,0,0,1,5.1-1.8Zm7.3,18.6a5.53,5.53,0,0,1-2.4,3.8,8.1,8.1,0,0,1-4.7,1.3,8.79,8.79,0,0,1-6.5-2.8c-1.9-1.8-2.9-4.6-3.1-8.1h23.1V85.3a14.91,14.91,0,0,0-3.9-10.6,13.2,13.2,0,0,0-10.1-4.2A15.12,15.12,0,0,0,246.9,75q-4.5,4.5-4.5,12.6c0,5.5,1.5,9.7,4.6,12.7a15.31,15.31,0,0,0,11.2,4.5,15,15,0,0,0,9-2.7,11.61,11.61,0,0,0,4.6-7.7ZM212,63.9h12.2c5.9,0,8.9,2.5,8.9,7.6a7,7,0,0,1-2.8,6,10.77,10.77,0,0,1-7.1,2.2H212Zm0,21.8h13.9a6,6,0,0,1,4,1.1,9.94,9.94,0,0,1,2.2,4.2l4.3,13.2h6.9l-5-15.5c-.9-2.5-1.8-4.2-2.8-5.1s-2.8-1.5-5.4-1.8a14.19,14.19,0,0,0,6.8-4,10.46,10.46,0,0,0,2.7-7.5c0-3.9-1.3-6.9-4-9s-6.2-3.2-10.6-3.2H205.2v46.2h6.6V85.7Z" transform="translate(-1 -1)"/><path class="cls-1" d="M552.5,48.5a14,14,0,0,0,9.4-3.1,11.82,11.82,0,0,0,4.2-8.4h-6.3a7.8,7.8,0,0,1-2.3,4.5,6.41,6.41,0,0,1-4.6,1.7h-.7a7.85,7.85,0,0,1-6.9-3.4,14.34,14.34,0,0,1-2.4-8.4,14.13,14.13,0,0,1,2.4-8.4,7.85,7.85,0,0,1,6.9-3.4h.7a6.88,6.88,0,0,1,4.6,1.7,7.53,7.53,0,0,1,2.3,4.5h6.3a11.45,11.45,0,0,0-4.2-8.4,14,14,0,0,0-9.4-3.1c-4.9,0-8.8,1.6-11.6,4.8s-4.2,7.3-4.2,12.3,1.4,9.1,4.2,12.3,6.7,4.8,11.6,4.8M533.4,1.7h-6.9V9h6.9Zm-.3,13.2h-6.3v33h6.3ZM516.6,42.4a2.93,2.93,0,0,1-2.1-.6,2.93,2.93,0,0,1-.6-2.1V20.3h7.9V14.9h-7.9V4.2h-6.3V14.9h-7.3v5.4h7.3V41q0,6.9,6.9,6.9h8.2V42.4Zm-21.3,3.4a8.55,8.55,0,0,0,3.6-7.2c0-5.2-3-8.4-9.1-9.6l-5.2-1.1c-3.1-.6-4.6-2-4.6-4.2a3.54,3.54,0,0,1,1.6-3,7.09,7.09,0,0,1,4.3-1.3h.7a6.46,6.46,0,0,1,4.6,1.6,6.17,6.17,0,0,1,2,4h6.3a11.08,11.08,0,0,0-3.7-7.7c-2.3-2.1-5.5-3.2-9.6-3.2a14.79,14.79,0,0,0-8.8,2.6,8.31,8.31,0,0,0-3.6,7.2,8.38,8.38,0,0,0,2.7,6.4,14,14,0,0,0,7,3.4l4.8.9q4.5.9,4.5,4.2a3.68,3.68,0,0,1-1.7,3.1,7.5,7.5,0,0,1-4.3,1.2h-.7a8,8,0,0,1-5-1.5,5.3,5.3,0,0,1-2.3-4.2h-6.3a10.54,10.54,0,0,0,3.8,7.9c2.4,2,5.6,3,9.9,3a13.93,13.93,0,0,0,9.1-2.5M468.9,1.7H462V9h6.9Zm-.3,13.2h-6.3v33h6.3ZM452.1,42.4a2.93,2.93,0,0,1-2.1-.6,2.93,2.93,0,0,1-.6-2.1V20.3h7.9V14.9h-7.9V4.2h-6.3V14.9h-7.3v5.4h7.3V41q0,6.9,6.9,6.9h8.2V42.4Zm-30.7,5.5V31.2c0-3.3.8-5.9,2.5-7.8a8.83,8.83,0,0,1,7-2.8h2.6V14.5h-2.4a11,11,0,0,0-6.3,2,9.33,9.33,0,0,0-3.8,5.6V14.8h-5.9v33l6.3.1ZM381.9,30l8.7-22.3L399.3,30ZM375,47.9,379.6,36h22l4.6,11.9h6.9L395,1.7h-8.4L368.3,47.9Zm-21-2.1a8.55,8.55,0,0,0,3.6-7.2c0-5.2-3-8.4-9.1-9.6l-5.2-1.1c-3.1-.6-4.6-2-4.6-4.2a3.54,3.54,0,0,1,1.6-3,7.09,7.09,0,0,1,4.3-1.3h.7a6.46,6.46,0,0,1,4.6,1.6,6.17,6.17,0,0,1,2,4h6.3a11.08,11.08,0,0,0-3.7-7.7c-2.3-2.1-5.5-3.2-9.6-3.2a14.79,14.79,0,0,0-8.8,2.6,8.31,8.31,0,0,0-3.6,7.2,8.38,8.38,0,0,0,2.7,6.4,14,14,0,0,0,7,3.4l4.8.9q4.5.9,4.5,4.2a3.68,3.68,0,0,1-1.7,3.1,7.5,7.5,0,0,1-4.3,1.2h-.7a8,8,0,0,1-5-1.5,5.3,5.3,0,0,1-2.3-4.2h-6.3a10.54,10.54,0,0,0,3.8,7.9c2.4,2,5.6,3,9.9,3a13.93,13.93,0,0,0,9.1-2.5m-29.6,0a8.55,8.55,0,0,0,3.6-7.2c0-5.2-3-8.4-9.1-9.6l-5.2-1.1c-3.1-.6-4.6-2-4.6-4.2a3.8,3.8,0,0,1,1.6-3,7.09,7.09,0,0,1,4.3-1.3h.7a6.46,6.46,0,0,1,4.6,1.6,6.17,6.17,0,0,1,2,4h6.3a11.08,11.08,0,0,0-3.7-7.7c-2.3-2.1-5.5-3.2-9.6-3.2a14.79,14.79,0,0,0-8.8,2.6,8.31,8.31,0,0,0-3.6,7.2,8.38,8.38,0,0,0,2.7,6.4,14,14,0,0,0,7,3.4l4.8.9q4.5.9,4.5,4.2a3.68,3.68,0,0,1-1.7,3.1,7.5,7.5,0,0,1-4.3,1.2h-.7a8,8,0,0,1-5-1.5,5.3,5.3,0,0,1-2.3-4.2h-6.3a10.54,10.54,0,0,0,3.8,7.9c2.4,2,5.6,3,9.9,3a13.61,13.61,0,0,0,9.1-2.5M298.1,1.7h-6.9V9h6.9Zm-.3,13.2h-6.3v33h6.3Zm-40.9,33,7.3-25.7,7.3,25.7h6.9l10.2-33H282l-7,26-7.6-26.1h-6.6l-7.3,26.1-7.3-26.1h-6.6l10.2,33,7.1.1ZM237.7,15.5a14,14,0,0,0-4.9-10.6Q228.15,1,220.5,1c-4.9,0-8.9,1.3-11.9,3.8a11.78,11.78,0,0,0-4.6,9.4c0,7.1,3.9,11.4,11.7,13l7.4,1.5c4.8,1,7.3,3.3,7.3,6.9a5.85,5.85,0,0,1-2.5,4.9,11.21,11.21,0,0,1-7,2h-.7c-3.6,0-6.4-.8-8.6-2.5a8.31,8.31,0,0,1-3.2-7.1h-6.6c.2,4.9,1.9,8.7,5.1,11.5s7.7,4.1,13.3,4.1c5.1,0,9.2-1.2,12.2-3.5a11.67,11.67,0,0,0,4.5-9.6c0-7.2-4.2-11.7-12.6-13.3l-7.4-1.5c-4.2-.9-6.3-3-6.3-6.5A6,6,0,0,1,213.3,9a10.87,10.87,0,0,1,6.9-2h.7A11,11,0,0,1,228,9.3a8.51,8.51,0,0,1,3.1,6.2Z" transform="translate(-1 -1)"/></svg>